mtllib materials.mtl
v 0.1693311 -0.7982636 0.2082939
v -0.2757169 -0.7865614 0.2349749
v -0.3056254 -0.7859944 -0.2641572
v 0.1394226 -0.7976965 -0.2908382
v 0.1660281 -0.9240091 0.2083489
v 0.1361196 -0.9234421 -0.2907831
v -0.3089285 -0.9117399 -0.2641021
v -0.2790199 -0.912307 0.23503
v 0.139652 -0.8089961 0.1825268
v -0.2484791 -0.8054 0.1996295
v -0.2476992 -0.7254086 0.2005106
v 0.140432 -0.7290047 0.1834079
v 0.1207157 -0.8040667 -0.248251
v 0.1214956 -0.7240753 -0.2473699
v -0.2666356 -0.7204792 -0.2302671
v -0.2674154 -0.8004705 -0.2311482
v -0.02690294 -0.7930773 -0.07151435
v -0.02586532 -0.7951208 0.008452818
v 0.01007867 0.284248 0.03556925
v 0.009041071 0.2862916 -0.04439791
v -0.1068519 -0.7904426 -0.07040964
v -0.07090792 0.2889262 -0.04329321
v -0.06987029 0.2868828 0.03667396
v -0.1058143 -0.7924862 0.009557515
v -0.2290013 0.2516363 -0.1224816
v -0.2290013 0.2516363 0.06751837
v 0.1909988 0.2516363 0.06751837
v 0.1909988 0.2516363 -0.1224816
v -0.2290013 0.4416363 -0.1224816
v 0.1909988 0.4416363 -0.1224816
v 0.1909988 0.4416363 0.06751837
v -0.2290013 0.4416363 0.06751837
v 0.1859988 0.4416363 -0.1224817
v 0.1859988 0.4891363 -0.1097541
v -0.2240013 0.4891363 -0.1097541
v -0.2240013 0.4416363 -0.1224817
v 0.1859988 0.5239087 -0.07498166
v -0.2240013 0.5239087 -0.0749817
v 0.1859988 0.5366364 -0.02748165
v -0.2240013 0.5366364 -0.02748169
v 0.1859988 0.5239087 0.02001835
v -0.2240013 0.5239087 0.02001832
v 0.1859988 0.4891363 0.05479078
v -0.2240013 0.4891363 0.05479075
v 0.1859988 0.4416363 0.06751837
v -0.2240013 0.4416363 0.06751834
v 0.1859988 0.3941363 0.05479078
v -0.2240013 0.3941363 0.05479075
v 0.1859988 0.3593639 0.02001838
v -0.2240013 0.3593639 0.02001834
v 0.1859988 0.3466363 -0.02748163
v -0.2240013 0.3466363 -0.02748166
v 0.1859988 0.3593639 -0.07498163
v -0.2240013 0.3593639 -0.07498167
v 0.1859988 0.3941363 -0.1097541
v -0.2240013 0.3941363 -0.1097541
v 0.1286752 0.5558685 0.07701711
v 0.09335288 0.5547309 0.07599421
v 0.09380591 0.5541238 0.06102616
v 0.1291282 0.5552614 0.06204908
v 0.09458968 0.51484 0.07764965
v 0.09504607 0.5141242 0.06268612
v 0.09818083 0.3990209 0.08245617
v 0.1335031 0.4001585 0.08347903
v 0.133956 0.3995514 0.06851098
v 0.09863383 0.3984138 0.06748809
v 0.05118486 0.5535283 0.07451327
v 0.05147412 0.5221156 0.07569285
v 0.05174056 0.5216143 0.06227621
v 0.0514513 0.5530268 0.06109668
v 0.1102015 0.5226995 0.07683703
v 0.1099123 0.5541121 0.07565744
v 0.1101786 0.5536107 0.06224082
v 0.110468 0.5221981 0.06342039
vn 0.0262587 0.9996551 -0.0004375886
vn -0.0262587 -0.9996551 0.0004375886
vn 0.05981376 -0.001134068 0.9982089
vn -0.05981376 0.001134068 -0.9982089
vn 0.9978641 -0.02623802 -0.05982282
vn -0.9978641 0.02623802 0.05982282
vn 0.04391311 -0.01143154 0.99897
vn -0.04391312 0.01143117 -0.99897
vn -0.009749526 -0.9998918 -0.01101327
vn 0.009749537 0.9998918 0.01101327
vn 0.9989879 -0.009255812 -0.04401987
vn -0.9989879 0.009254972 0.04401997
vn 0.9993622 -0.0329328 -0.01380869
vn -0.9993622 0.03293278 0.01380888
vn -0.03327237 -0.9991311 -0.02510064
vn 0.03327312 0.9991311 0.02510043
vn -0.0129701 0.0255441 -0.9995896
vn 0.01297022 -0.0255441 0.9995896
vn -1.481153E-07 -1 0
vn -5.07536E-08 1 0
vn -1 1.192093E-07 -2.328048E-08
vn 1 -1.192093E-07 1.29612E-08
vn -2.034574E-15 -1.706724E-08 -1
vn 2.034574E-15 1.706724E-08 1
vn 5.403728E-08 0.2588189 -0.9659259
vn -2.675599E-08 0.7071066 -0.7071071
vn -8.448606E-08 0.9659259 -0.2588192
vn -1.489917E-07 0.9659259 0.2588189
vn -1.517132E-07 0.7071069 0.7071068
vn -1.151203E-07 0.2588192 0.9659259
vn -5.318827E-08 -0.2588189 0.9659259
vn 2.227009E-08 -0.7071068 0.7071069
vn 9.399881E-08 -0.9659258 0.2588192
vn 1.292916E-07 -0.9659259 -0.2588188
vn 1.478573E-07 -0.7071068 -0.7071069
vn 1.156761E-07 -0.2588191 -0.9659258
vn 1 -1.192093E-07 5.67674E-08
vn -1 1.192093E-07 -1.524761E-07
vn -0.03096331 0.9986609 -0.04144473
vn -0.9990634 -0.03217598 -0.02893238
vn 0.03096422 -0.998661 0.04144416
vn 0.9990634 0.03217686 0.02892995
vn -0.03022686 0.04050936 0.9987218
vn 0.03022718 -0.04050924 -0.9987218
vn -0.9990633 -0.03217788 -0.0289314
vn -0.9997609 -0.009937628 -0.01948194
vn 0.9997609 0.009938424 0.01947953
vn -0.009202599 0.9992532 -0.03753117
vn -0.01983656 0.0373349 0.999106
vn 0.01983606 -0.03733381 -0.999106
vn 0.009202688 -0.9992535 0.03752241
vt -0.02640667 -0.03312967
vt -0.01376954 -0.07590196
vt 0.03418405 -0.06173401
vt 0.02154692 -0.01896173
vt 0.02640667 -0.03312967
vt -0.02154692 -0.01896173
vt -0.03418405 -0.06173401
vt 0.01376954 -0.07590196
vt 0.06170548 0.004863067
vt 0.0505592 -0.0009669514
vt 0.07123028 -0.04048748
vt 0.08237655 -0.03465746
vt -0.06170548 0.004863067
vt -0.08237655 -0.03465746
vt -0.07123028 -0.04048748
vt -0.0505592 -0.0009669525
vt 0.05822359 0.03249807
vt 0.01468649 0.05709069
vt 0.008499875 0.04613833
vt 0.05203698 0.02154571
vt -0.05822359 0.03249807
vt -0.05203698 0.02154571
vt -0.008499874 0.04613833
vt -0.01468649 0.05709069
vt 0.06204783 0.002429629
vt 0.07944302 -0.03231112
vt 0.08659638 -0.02872933
vt 0.0692012 0.006011424
vt -0.06204782 0.002429632
vt -0.06920119 0.006011425
vt -0.08659638 -0.02872933
vt -0.07944301 -0.03231112
vt 0.0226088 -0.03398208
vt -0.0185164 -0.02101128
vt -0.03020289 -0.05806445
vt 0.0109223 -0.07103525
vt -0.0226088 -0.03398208
vt -0.0109223 -0.07103526
vt 0.0302029 -0.05806447
vt 0.0185164 -0.02101128
vt 0.05704281 0.03092527
vt 0.06130661 0.03769432
vt 0.02481957 0.06067735
vt 0.02055577 0.0539083
vt -0.05704284 0.03092529
vt -0.02055582 0.05390834
vt -0.02481962 0.06067739
vt -0.06130664 0.03769433
vt 0.03702909 0.04355236
vt 0.04364119 0.03904901
vt 0.1044537 0.1283377
vt 0.09784165 0.1328411
vt -0.03702908 0.04355238
vt -0.09784164 0.1328411
vt -0.1044537 0.1283378
vt -0.04364118 0.03904902
vt -0.008639158 -0.04184083
vt -0.01135687 -0.04936506
vt -0.003832642 -0.05208278
vt -0.001114927 -0.04455854
vt 0.008639181 -0.04184099
vt 0.001114952 -0.04455871
vt 0.003832664 -0.05208294
vt 0.0113569 -0.04936523
vt -0.07002874 -0.01072773
vt -0.1654688 0.03988686
vt -0.169217 0.03281923
vt -0.07377692 -0.01779535
vt 0.07002874 -0.01072774
vt 0.07377691 -0.01779536
vt 0.169217 0.03281923
vt 0.1654688 0.03988685
vt -0.01752314 -0.05798442
vt 0.0003699602 -0.06437482
vt 0.01449609 -0.02482165
vt -0.003397004 -0.01843125
vt 0.01752312 -0.05798439
vt 0.003396992 -0.01843122
vt -0.0144961 -0.02482161
vt -0.0003699726 -0.06437478
vt -0.0968924 0.130488
vt -0.1079359 0.1459489
vt -0.1233969 0.1349054
vt -0.1123533 0.1194445
vt 0.0968924 0.130488
vt 0.1123533 0.1194445
vt 0.1233969 0.1349054
vt 0.1079359 0.1459489
vt -0.1724009 0.01855937
vt -0.1536179 0.05612532
vt -0.170612 0.06462238
vt -0.189395 0.02705643
vt 0.1724009 0.01855937
vt 0.189395 0.02705643
vt 0.170612 0.06462238
vt 0.1536179 0.05612532
vt -0.1709393 0.04635904
vt -0.1755199 0.04814791
vt -0.1904346 0.009956898
vt -0.1858539 0.008168028
vt -0.1359474 -0.005363903
vt -0.1408401 -0.004869671
vt -0.1449607 -0.04566208
vt -0.1400681 -0.04615631
vt -0.05131652 -0.03049841
vt -0.05612366 -0.03153465
vt -0.04748399 -0.07161403
vt -0.04267685 -0.07057778
vt 0.04189825 -0.001153638
vt 0.03745526 -0.003261315
vt 0.05502794 -0.04030455
vt 0.05947093 -0.03819687
vt 0.1141464 0.04696583
vt 0.109941 0.04441696
vt 0.1311922 0.009354323
vt 0.1353976 0.0119032
vt 0.1607589 0.0705796
vt 0.1564965 0.06812706
vt 0.1769445 0.03259002
vt 0.1812068 0.03504256
vt 0.1755199 0.04814791
vt 0.1709393 0.04635904
vt 0.1858539 0.008168028
vt 0.1904346 0.009956898
vt 0.1408401 -0.004869684
vt 0.1359474 -0.005363918
vt 0.1400681 -0.04615632
vt 0.1449607 -0.04566209
vt 0.05612367 -0.03153465
vt 0.05131652 -0.03049841
vt 0.04267685 -0.07057779
vt 0.047484 -0.07161403
vt -0.03745525 -0.003261324
vt -0.04189824 -0.001153647
vt -0.05947092 -0.03819688
vt -0.05502793 -0.04030456
vt -0.109941 0.04441696
vt -0.1141465 0.04696583
vt -0.1353976 0.0119032
vt -0.1311922 0.009354327
vt -0.1564965 0.06812707
vt -0.1607589 0.0705796
vt -0.1812068 0.03504256
vt -0.1769445 0.03259002
vt 0.1062107 0.1413439
vt 0.1070192 0.1364933
vt 0.1101447 0.1326967
vt 0.1147497 0.1309715
vt 0.1196003 0.1317799
vt 0.1233969 0.1349054
vt 0.1251221 0.1395104
vt 0.1243136 0.144361
vt 0.1211882 0.1481576
vt 0.1165832 0.1498828
vt 0.1117325 0.1490744
vt 0.1079359 0.1459489
vt -0.107936 0.1459489
vt -0.1117325 0.1490744
vt -0.1165832 0.1498828
vt -0.1211882 0.1481576
vt -0.1243136 0.144361
vt -0.1251221 0.1395104
vt -0.1233969 0.1349054
vt -0.1196003 0.1317799
vt -0.1147497 0.1309715
vt -0.1101447 0.1326967
vt -0.1070192 0.1364932
vt -0.1062108 0.1413439
vt -0.02346135 -0.02754911
vt -0.0222494 -0.03087044
vt -0.02084148 -0.03035669
vt -0.02205343 -0.02703537
vt -0.1414351 0.134297
vt -0.1390205 0.131115
vt -0.13782 0.1320123
vt -0.1402413 0.135203
vt 0.02224935 -0.03087024
vt 0.0234613 -0.02754892
vt 0.02205338 -0.02703517
vt 0.02084143 -0.0303565
vt 0.1320094 0.1218769
vt 0.1414348 0.1342973
vt 0.1402409 0.1352033
vt 0.1308155 0.1227828
vt 0.1671453 0.06057944
vt 0.1686775 0.05739313
vt 0.1791294 0.06241892
vt 0.1827292 0.06414992
vt 0.1811971 0.06733624
vt -0.1811971 0.06733625
vt -0.1827293 0.06414993
vt -0.1791196 0.06241421
vt -0.1686775 0.05739313
vt -0.1671453 0.06057944
vt -0.1390206 0.131115
vt -0.1320098 0.1218765
vt -0.1308159 0.1227825
vt -0.1378201 0.1320123
vt -0.1360835 0.1388299
vt -0.1342626 0.1362673
vt -0.1331679 0.1370451
vt -0.1349888 0.1396077
vt 0.1342622 0.1362677
vt 0.1360831 0.1388302
vt 0.1349884 0.1396081
vt 0.1331676 0.1370455
vt -0.0205393 -0.03312457
vt -0.01855555 -0.03865362
vt -0.01729158 -0.03820012
vt -0.01927533 -0.03267108
vt 0.1823097 0.06489966
vt 0.1795036 0.06348269
vt 0.1821513 0.05823911
vt 0.1849575 0.05965609
vt -0.1849575 0.05965601
vt -0.1821514 0.05823905
vt -0.1795036 0.06348263
vt -0.1823098 0.06489958
vt 0.01855381 -0.03865314
vt 0.02053758 -0.03312411
vt 0.01927361 -0.0326706
vt 0.01728984 -0.03819963
o group1609990409
g mesh1609990409
usemtl mat21
f 4/4/1 3/3/1 2/2/1 1/1/1
f 8/8/2 7/7/2 6/6/2 5/5/2
f 2/12/3 8/11/3 5/10/3 1/9/3
f 6/16/4 7/15/4 3/14/4 4/13/4
f 5/20/5 6/19/5 4/18/5 1/17/5
f 3/24/6 7/23/6 8/22/6 2/21/6
o group810373220
g mesh810373220
usemtl mat21
f 12/28/7 11/27/7 10/26/7 9/25/7
f 16/32/8 15/31/8 14/30/8 13/29/8
f 10/36/9 16/35/9 13/34/9 9/33/9
f 14/40/10 15/39/10 11/38/10 12/37/10
f 13/44/11 14/43/11 12/42/11 9/41/11
f 11/48/12 15/47/12 16/46/12 10/45/12
o group389423142
g mesh389423142
usemtl mat21
f 20/52/13 19/51/13 18/50/13 17/49/13
f 24/56/14 23/55/14 22/54/14 21/53/14
f 18/60/15 24/59/15 21/58/15 17/57/15
f 22/64/16 23/63/16 19/62/16 20/61/16
f 21/68/17 22/67/17 20/66/17 17/65/17
f 19/72/18 23/71/18 24/70/18 18/69/18
o group1023418343
g mesh1023418343
usemtl mat23
f 28/76/19 27/75/19 26/74/19 25/73/19
f 32/80/20 31/79/20 30/78/20 29/77/20
f 26/84/21 32/83/21 29/82/21 25/81/21
f 30/88/22 31/87/22 27/86/22 28/85/22
f 29/92/23 30/91/23 28/90/23 25/89/23
f 27/96/24 31/95/24 32/94/24 26/93/24
o group1583034007
g mesh1583034007
usemtl mat23
f 36/100/25 35/99/25 34/98/25 33/97/25
f 35/104/26 38/103/26 37/102/26 34/101/26
f 38/108/27 40/107/27 39/106/27 37/105/27
f 40/112/28 42/111/28 41/110/28 39/109/28
f 42/116/29 44/115/29 43/114/29 41/113/29
f 44/120/30 46/119/30 45/118/30 43/117/30
f 46/124/31 48/123/31 47/122/31 45/121/31
f 48/128/32 50/127/32 49/126/32 47/125/32
f 50/132/33 52/131/33 51/130/33 49/129/33
f 52/136/34 54/135/34 53/134/34 51/133/34
f 54/140/35 56/139/35 55/138/35 53/137/35
f 56/144/36 36/143/36 33/142/36 55/141/36
f 33/156/37 34/155/37 37/154/37 39/153/37 41/152/37 43/151/37 45/150/37 47/149/37 49/148/37 51/147/37 53/146/37 55/145/37
f 56/168/38 54/167/38 52/166/38 50/165/38 48/164/38 46/163/38 44/162/38 42/161/38 40/160/38 38/159/38 35/158/38 36/157/38
o group245806830
g mesh245806830
usemtl mat8
f 60/172/39 59/171/39 58/170/39 57/169/39
f 59/176/40 62/175/40 61/174/40 58/173/40
f 66/180/41 65/179/41 64/178/41 63/177/41
f 65/184/42 60/183/42 57/182/42 64/181/42
f 57/189/43 58/188/43 61/187/43 63/186/43 64/185/43
f 65/194/44 66/193/44 62/192/44 59/191/44 60/190/44
f 62/198/45 66/197/45 63/196/45 61/195/45
o group2078075305
g mesh2078075305
usemtl mat8
f 70/202/46 69/201/46 68/200/46 67/199/46
f 74/206/47 73/205/47 72/204/47 71/203/47
f 73/210/48 70/209/48 67/208/48 72/207/48
f 67/214/49 68/213/49 71/212/49 72/211/49
f 73/218/50 74/217/50 69/216/50 70/215/50
f 69/222/51 74/221/51 71/220/51 68/219/51
